<svg width="1000" height="34" viewBox="0 0 1000 34" xmlns="http://www.w3.org/2000/svg" xmlns:xlink="http://www.w3.org/1999/xlink" aria-hidden="true"><title></title>
<defs>

<linearGradient id="fadeline" x1="0" y1="0" x2="1" y2="0"><stop offset="0" stop-color="#8f6d2b" stop-opacity="0"/><stop offset=".5" stop-color="#8f6d2b" stop-opacity=".7"/><stop offset="1" stop-color="#8f6d2b" stop-opacity="0"/></linearGradient><clipPath id="dvc"><rect x="72" y="0" width="856" height="34"/></clipPath><linearGradient id="dvg" x1="0" y1="0" x2="1" y2="0"><stop offset="0" stop-color="#c29a47" stop-opacity="0"/><stop offset=".5" stop-color="#c29a47"/><stop offset="1" stop-color="#c29a47" stop-opacity="0"/></linearGradient>
</defs>
<style>
@media (prefers-reduced-motion: reduce){*{animation:none!important}}
@keyframes rise{from{opacity:0;transform:translateY(16px)}to{opacity:1;transform:translateY(0)}}
@keyframes fade{from{opacity:0}to{opacity:1}}
@keyframes dust{0%{opacity:0;transform:translateY(0)}20%{opacity:1}75%{opacity:1}100%{opacity:0;transform:translateY(-64px)}}

</style>
<line x1="72" y1="17.0" x2="474.0" y2="17.0" stroke="url(#fadeline)"/>
<line x1="526.0" y1="17.0" x2="928" y2="17.0" stroke="url(#fadeline)" transform="rotate(180 727.0 17.0)"/>
<g clip-path="url(#dvc)"><rect x="-128" y="16.25" width="200" height="1.5" fill="url(#dvg)"><animate attributeName="x" values="-128;928;928" keyTimes="0;.6;1" dur="8s" repeatCount="indefinite"/></rect></g>
<polygon points="485.0,15.0 487.0,17.0 485.0,19.0 483.0,17.0" fill="#8f6d2b" stroke="#8f6d2b" stroke-width="1"/><polygon points="515.0,15.0 517.0,17.0 515.0,19.0 513.0,17.0" fill="#8f6d2b" stroke="#8f6d2b" stroke-width="1"/>
<polygon points="500.0,12.0 505.0,17.0 500.0,22.0 495.0,17.0" fill="#f9f6ef" stroke="#c29a47" stroke-width="1.2"/><polygon points="500.0,15.2 501.8,17.0 500.0,18.8 498.2,17.0" fill="#c29a47" stroke="#c29a47" stroke-width="1"/>
</svg>