<svg width="960" height="170" viewBox="0 0 960 170" xmlns="http://www.w3.org/2000/svg" role="img">
<defs>
<radialGradient id="glowe" cx="50%" cy="42%" r="65%">
<stop offset="0%" stop-color="#d9a441" stop-opacity="0.16"/>
<stop offset="55%" stop-color="#d9a441" stop-opacity="0.05"/>
<stop offset="100%" stop-color="#d9a441" stop-opacity="0"/>
</radialGradient>
<linearGradient id="sweepe" x1="0" y1="0" x2="1" y2="0">
<stop offset="0%" stop-color="#d9a441" stop-opacity="0"/>
<stop offset="50%" stop-color="#d9a441" stop-opacity="0.5"/>
<stop offset="100%" stop-color="#d9a441" stop-opacity="0"/>
</linearGradient>
<linearGradient id="goldbare" x1="0" y1="0" x2="1" y2="0">
<stop offset="0%" stop-color="#3a2a0c"/>
<stop offset="55%" stop-color="#d9a441"/>
<stop offset="100%" stop-color="#ffce6e"/>
</linearGradient>
<linearGradient id="cyanbare" x1="0" y1="0" x2="1" y2="0">
<stop offset="0%" stop-color="#0c5b70"/>
<stop offset="100%" stop-color="#35e3ff"/>
</linearGradient>
<radialGradient id="dote" cx="50%" cy="50%" r="50%">
<stop offset="0%" stop-color="#ffce6e" stop-opacity="0.95"/>
<stop offset="100%" stop-color="#ffce6e" stop-opacity="0"/>
</radialGradient>
<filter id="softe" x="-60%" y="-60%" width="220%" height="220%">
<feGaussianBlur stdDeviation="2.4"/>
</filter>
<filter id="graine" x="0" y="0" width="100%" height="100%">
<feTurbulence type="fractalNoise" baseFrequency="0.9" numOctaves="2" stitchTiles="stitch" result="n"/>
<feColorMatrix in="n" type="matrix" values="0 0 0 0 1  0 0 0 0 0.85  0 0 0 0 0.55  0.05 0.05 0.05 0 0"/>
</filter>
</defs>

<style>
text { font-family: 'JetBrains Mono','SFMono-Regular','Cascadia Code',Consolas,monospace; }
.sans { font-family: 'Space Grotesk','Segoe UI',Inter,sans-serif; }
.ink { fill:#f2ede1; }
.muted { fill:#8a8374; }
.dim { fill:#524d42; }
.gold { fill:#d9a441; }
.goldHi { fill:#ffce6e; }
.cyan { fill:#35e3ff; }
.line { stroke:#1c1c24; }
.tick { letter-spacing:.4px; }
@keyframes blink { 0%,49% { opacity:1 } 50%,100% { opacity:0 } }
.cursor { animation: blink 1.1s step-end infinite; }
</style>
<rect width="960" height="170" fill="#07070a"/><rect width="960" height="170" filter="url(#graine)" opacity="0.5"/><rect width="960" height="170" fill="url(#glowe)"/><g stroke="#d9a441" stroke-width="1" opacity="0.05"><line x1="480.0" y1="85.0" x2="1440.0" y2="85.0"/><line x1="480.0" y1="85.0" x2="1407.3" y2="146.6"/><line x1="480.0" y1="85.0" x2="1311.4" y2="204.0"/><line x1="480.0" y1="85.0" x2="1158.8" y2="253.3"/><line x1="480.0" y1="85.0" x2="960.0" y2="291.1"/><line x1="480.0" y1="85.0" x2="728.5" y2="314.9"/><line x1="480.0" y1="85.0" x2="480.0" y2="323.0"/><line x1="480.0" y1="85.0" x2="231.5" y2="314.9"/><line x1="480.0" y1="85.0" x2="0.0" y2="291.1"/><line x1="480.0" y1="85.0" x2="-198.8" y2="253.3"/><line x1="480.0" y1="85.0" x2="-351.4" y2="204.0"/><line x1="480.0" y1="85.0" x2="-447.3" y2="146.6"/><line x1="480.0" y1="85.0" x2="-480.0" y2="85.0"/><line x1="480.0" y1="85.0" x2="-447.3" y2="23.4"/><line x1="480.0" y1="85.0" x2="-351.4" y2="-34.0"/><line x1="480.0" y1="85.0" x2="-198.8" y2="-83.3"/><line x1="480.0" y1="85.0" x2="-0.0" y2="-121.1"/><line x1="480.0" y1="85.0" x2="231.5" y2="-144.9"/><line x1="480.0" y1="85.0" x2="480.0" y2="-153.0"/><line x1="480.0" y1="85.0" x2="728.5" y2="-144.9"/><line x1="480.0" y1="85.0" x2="960.0" y2="-121.1"/><line x1="480.0" y1="85.0" x2="1158.8" y2="-83.3"/><line x1="480.0" y1="85.0" x2="1311.4" y2="-34.0"/><line x1="480.0" y1="85.0" x2="1407.3" y2="23.4"/></g><rect x="0.5" y="0.5" width="959" height="169" fill="none" stroke="#1c1c24" stroke-width="1"/><text x="480.0" y="79.0" text-anchor="middle" class="sans goldHi" font-size="20" font-weight="700" letter-spacing="2">CAPACITY: UNBOUNDED</text><text x="480.0" y="107.0" text-anchor="middle" class="dim" font-size="11">thanks for reading this far — that’s already more than most<tspan class="cursor gold">_</tspan></text></svg>