<svg width="900" height="300" viewBox="0 0 900 300" xmlns="http://www.w3.org/2000/svg" role="img">
<style>
text { font-family: 'JetBrains Mono','SFMono-Regular','Cascadia Code','Consolas',monospace; }
.ink { fill:#0d1117; }
.muted { fill:#57606a; }
.dim { fill:#8a929c; }
.accent { fill:#3b5bfd; }
.accent2 { fill:#0f9d78; }
.line { stroke:#d7dce2; }
</style>
<rect x="32" y="26" width="7" height="7" class="accent" fill="#3b5bfd"/>
<text x="48" y="40" font-size="13" class="muted" letter-spacing="0.5">03.projects</text>
<rect x="32" y="56" width="408.0" height="220" rx="8" fill="#fafbfc" stroke="#d7dce2" stroke-width="1"/>
<rect x="32" y="56" width="4" height="220" fill="#3b5bfd" rx="2"/>
<text x="54" y="86" font-size="10.5" class="dim" letter-spacing="0.5">case 01 / full-stack</text>
<text x="54" y="110" font-size="16" class="ink" font-weight="700">JobFlow — Job Application Platform</text>
<text x="54" y="134" font-size="12" class="muted">Flutter app + Node/Express API + Postgres.</text>
<text x="54" y="152" font-size="12" class="muted">JWT auth, resume uploads, interview calendar,</text>
<text x="54" y="170" font-size="12" class="muted">and a plain-JS admin panel on the same API.</text>
<rect x="54" y="192" width="72.9" height="24" rx="4" fill="#f0f2f5" stroke="#d7dce2" stroke-width="1"/><text x="64" y="208.5" font-size="12.5" fill="#0d1117">Flutter</text>
<rect x="132.9375" y="192" width="110.8" height="24" rx="4" fill="#f0f2f5" stroke="#d7dce2" stroke-width="1"/><text x="142.9375" y="208.5" font-size="12.5" fill="#0d1117">Node/Express</text>
<rect x="249.6875" y="192" width="95.6" height="24" rx="4" fill="#f0f2f5" stroke="#d7dce2" stroke-width="1"/><text x="259.6875" y="208.5" font-size="12.5" fill="#0d1117">PostgreSQL</text>
<rect x="351.3125" y="192" width="42.7" height="24" rx="4" fill="#f0f2f5" stroke="#d7dce2" stroke-width="1"/><text x="361.3125" y="208.5" font-size="12.5" fill="#0d1117">JWT</text>
<rect x="54" y="220" width="65.4" height="24" rx="4" fill="#f0f2f5" stroke="#d7dce2" stroke-width="1"/><text x="64" y="236.5" font-size="12.5" fill="#0d1117">Multer</text>
<rect x="125.375" y="220" width="103.2" height="24" rx="4" fill="#f0f2f5" stroke="#d7dce2" stroke-width="1"/><text x="135.375" y="236.5" font-size="12.5" fill="#0d1117">Admin Panel</text>
<text x="54" y="260" font-size="10.5" class="accent">view repo → github.com/javohir-io</text>
<rect x="460.0" y="56" width="408.0" height="220" rx="8" fill="#fafbfc" stroke="#d7dce2" stroke-width="1"/>
<rect x="460.0" y="56" width="4" height="220" fill="#3b5bfd" rx="2"/>
<text x="482.0" y="86" font-size="10.5" class="dim" letter-spacing="0.5">case 02 / game dev</text>
<text x="482.0" y="110" font-size="16" class="ink" font-weight="700">Flutter Arcade Game</text>
<text x="482.0" y="134" font-size="12" class="muted">A mobile game built solo with Flutter &amp; Dart.</text>
<text x="482.0" y="152" font-size="12" class="muted">Custom game loop and UI, no external game</text>
<text x="482.0" y="170" font-size="12" class="muted">engine — just the framework and the logic.</text>
<rect x="482.0" y="192" width="72.9" height="24" rx="4" fill="#f0f2f5" stroke="#d7dce2" stroke-width="1"/><text x="492.0" y="208.5" font-size="12.5" fill="#0d1117">Flutter</text>
<rect x="560.9375" y="192" width="50.2" height="24" rx="4" fill="#f0f2f5" stroke="#d7dce2" stroke-width="1"/><text x="570.9375" y="208.5" font-size="12.5" fill="#0d1117">Dart</text>
<rect x="617.1875" y="192" width="88.1" height="24" rx="4" fill="#f0f2f5" stroke="#d7dce2" stroke-width="1"/><text x="627.1875" y="208.5" font-size="12.5" fill="#0d1117">Game Loop</text>
<rect x="711.25" y="192" width="88.1" height="24" rx="4" fill="#f0f2f5" stroke="#d7dce2" stroke-width="1"/><text x="721.25" y="208.5" font-size="12.5" fill="#0d1117">Custom UI</text>
<text x="482.0" y="260" font-size="10.5" class="accent">view repo → github.com/javohir-io</text>
<line x1="0" y1="299" x2="900" y2="299" class="line" stroke-width="1"/>
<line x1="0" y1="299" x2="0" y2="304" class="line" stroke-width="1"/>
<line x1="14" y1="299" x2="14" y2="301.5" class="line" stroke-width="1"/>
<line x1="28" y1="299" x2="28" y2="301.5" class="line" stroke-width="1"/>
<line x1="42" y1="299" x2="42" y2="301.5" class="line" stroke-width="1"/>
<line x1="56" y1="299" x2="56" y2="301.5" class="line" stroke-width="1"/>
<line x1="70" y1="299" x2="70" y2="304" class="line" stroke-width="1"/>
<line x1="84" y1="299" x2="84" y2="301.5" class="line" stroke-width="1"/>
<line x1="98" y1="299" x2="98" y2="301.5" class="line" stroke-width="1"/>
<line x1="112" y1="299" x2="112" y2="301.5" class="line" stroke-width="1"/>
<line x1="126" y1="299" x2="126" y2="301.5" class="line" stroke-width="1"/>
<line x1="140" y1="299" x2="140" y2="304" class="line" stroke-width="1"/>
<line x1="154" y1="299" x2="154" y2="301.5" class="line" stroke-width="1"/>
<line x1="168" y1="299" x2="168" y2="301.5" class="line" stroke-width="1"/>
<line x1="182" y1="299" x2="182" y2="301.5" class="line" stroke-width="1"/>
<line x1="196" y1="299" x2="196" y2="301.5" class="line" stroke-width="1"/>
<line x1="210" y1="299" x2="210" y2="304" class="line" stroke-width="1"/>
<line x1="224" y1="299" x2="224" y2="301.5" class="line" stroke-width="1"/>
<line x1="238" y1="299" x2="238" y2="301.5" class="line" stroke-width="1"/>
<line x1="252" y1="299" x2="252" y2="301.5" class="line" stroke-width="1"/>
<line x1="266" y1="299" x2="266" y2="301.5" class="line" stroke-width="1"/>
<line x1="280" y1="299" x2="280" y2="304" class="line" stroke-width="1"/>
<line x1="294" y1="299" x2="294" y2="301.5" class="line" stroke-width="1"/>
<line x1="308" y1="299" x2="308" y2="301.5" class="line" stroke-width="1"/>
<line x1="322" y1="299" x2="322" y2="301.5" class="line" stroke-width="1"/>
<line x1="336" y1="299" x2="336" y2="301.5" class="line" stroke-width="1"/>
<line x1="350" y1="299" x2="350" y2="304" class="line" stroke-width="1"/>
<line x1="364" y1="299" x2="364" y2="301.5" class="line" stroke-width="1"/>
<line x1="378" y1="299" x2="378" y2="301.5" class="line" stroke-width="1"/>
<line x1="392" y1="299" x2="392" y2="301.5" class="line" stroke-width="1"/>
<line x1="406" y1="299" x2="406" y2="301.5" class="line" stroke-width="1"/>
<line x1="420" y1="299" x2="420" y2="304" class="line" stroke-width="1"/>
<line x1="434" y1="299" x2="434" y2="301.5" class="line" stroke-width="1"/>
<line x1="448" y1="299" x2="448" y2="301.5" class="line" stroke-width="1"/>
<line x1="462" y1="299" x2="462" y2="301.5" class="line" stroke-width="1"/>
<line x1="476" y1="299" x2="476" y2="301.5" class="line" stroke-width="1"/>
<line x1="490" y1="299" x2="490" y2="304" class="line" stroke-width="1"/>
<line x1="504" y1="299" x2="504" y2="301.5" class="line" stroke-width="1"/>
<line x1="518" y1="299" x2="518" y2="301.5" class="line" stroke-width="1"/>
<line x1="532" y1="299" x2="532" y2="301.5" class="line" stroke-width="1"/>
<line x1="546" y1="299" x2="546" y2="301.5" class="line" stroke-width="1"/>
<line x1="560" y1="299" x2="560" y2="304" class="line" stroke-width="1"/>
<line x1="574" y1="299" x2="574" y2="301.5" class="line" stroke-width="1"/>
<line x1="588" y1="299" x2="588" y2="301.5" class="line" stroke-width="1"/>
<line x1="602" y1="299" x2="602" y2="301.5" class="line" stroke-width="1"/>
<line x1="616" y1="299" x2="616" y2="301.5" class="line" stroke-width="1"/>
<line x1="630" y1="299" x2="630" y2="304" class="line" stroke-width="1"/>
<line x1="644" y1="299" x2="644" y2="301.5" class="line" stroke-width="1"/>
<line x1="658" y1="299" x2="658" y2="301.5" class="line" stroke-width="1"/>
<line x1="672" y1="299" x2="672" y2="301.5" class="line" stroke-width="1"/>
<line x1="686" y1="299" x2="686" y2="301.5" class="line" stroke-width="1"/>
<line x1="700" y1="299" x2="700" y2="304" class="line" stroke-width="1"/>
<line x1="714" y1="299" x2="714" y2="301.5" class="line" stroke-width="1"/>
<line x1="728" y1="299" x2="728" y2="301.5" class="line" stroke-width="1"/>
<line x1="742" y1="299" x2="742" y2="301.5" class="line" stroke-width="1"/>
<line x1="756" y1="299" x2="756" y2="301.5" class="line" stroke-width="1"/>
<line x1="770" y1="299" x2="770" y2="304" class="line" stroke-width="1"/>
<line x1="784" y1="299" x2="784" y2="301.5" class="line" stroke-width="1"/>
<line x1="798" y1="299" x2="798" y2="301.5" class="line" stroke-width="1"/>
<line x1="812" y1="299" x2="812" y2="301.5" class="line" stroke-width="1"/>
<line x1="826" y1="299" x2="826" y2="301.5" class="line" stroke-width="1"/>
<line x1="840" y1="299" x2="840" y2="304" class="line" stroke-width="1"/>
<line x1="854" y1="299" x2="854" y2="301.5" class="line" stroke-width="1"/>
<line x1="868" y1="299" x2="868" y2="301.5" class="line" stroke-width="1"/>
<line x1="882" y1="299" x2="882" y2="301.5" class="line" stroke-width="1"/>
<line x1="896" y1="299" x2="896" y2="301.5" class="line" stroke-width="1"/>
</svg>