<svg width="900" height="300" viewBox="0 0 900 300" xmlns="http://www.w3.org/2000/svg" role="img">
<defs>
<pattern id="dotss" width="15" height="15" patternUnits="userSpaceOnUse">
<circle cx="1.4" cy="1.4" r="1.1" fill="#eae6fb"/>
</pattern>
</defs>
<style>
text { font-family: 'JetBrains Mono','SFMono-Regular','Cascadia Code',Consolas,monospace; }
.sans { font-family: 'Space Grotesk','Segoe UI',Inter,sans-serif; }
.ink { fill:#141225; }
.muted { fill:#5b5770; }
.dim { fill:#8b87a3; }
.accent { fill:#6851ff; }
.accent2 { fill:#0f9d78; }
.line { stroke:#e2defa; }
</style>
<rect x="4" y="4" width="892" height="292" rx="18" fill="#faf9ff" stroke="#e2defa" stroke-width="1.2"/>
<rect x="4" y="4" width="892" height="292" rx="18" fill="url(#dotss)" opacity="0.55"/>
<path d="M 13 26 L 13 13 L 26 13" fill="none" stroke="#6851ff" stroke-width="2" stroke-linecap="round" opacity="0.85"/>
<path d="M 887 26 L 887 13 L 874 13" fill="none" stroke="#6851ff" stroke-width="2" stroke-linecap="round" opacity="0.85"/>
<path d="M 13 274 L 13 287 L 26 287" fill="none" stroke="#6851ff" stroke-width="2" stroke-linecap="round" opacity="0.85"/>
<path d="M 887 274 L 887 287 L 874 287" fill="none" stroke="#6851ff" stroke-width="2" stroke-linecap="round" opacity="0.85"/>
<polygon points="70.7,39.5 70.7,56.5 56.0,65.0 41.3,56.5 41.3,39.5 56.0,31.0" fill="#faf9ff" stroke="#6851ff" stroke-width="1.6"/><text x="56" y="52.5" font-size="12.5" text-anchor="middle" class="accent sans" font-weight="700">03</text>
<text x="84" y="54" font-size="19" class="ink sans" font-weight="700">stack</text>
<text x="40" y="89" font-size="10.5" class="accent" letter-spacing="0.5">mobile</text>
<rect x="136" y="76" width="66.6" height="22" rx="5" fill="#faf9ff" stroke="#e2defa" stroke-width="1"/><text x="146" y="91.2" font-size="11" fill="#141225">Flutter</text>
<rect x="209.585" y="76" width="46.6" height="22" rx="5" fill="#faf9ff" stroke="#e2defa" stroke-width="1"/><text x="219.585" y="91.2" font-size="11" fill="#141225">Dart</text>
<rect x="263.205" y="76" width="46.6" height="22" rx="5" fill="#faf9ff" stroke="#e2defa" stroke-width="1"/><text x="273.205" y="91.2" font-size="11" fill="#141225">http</text>
<rect x="316.825" y="76" width="139.8" height="22" rx="5" fill="#faf9ff" stroke="#e2defa" stroke-width="1"/><text x="326.825" y="91.2" font-size="11" fill="#141225">shared_preferences</text>
<rect x="463.615" y="76" width="93.2" height="22" rx="5" fill="#faf9ff" stroke="#e2defa" stroke-width="1"/><text x="473.615" y="91.2" font-size="11" fill="#141225">file_picker</text>
<rect x="563.82" y="76" width="99.9" height="22" rx="5" fill="#faf9ff" stroke="#e2defa" stroke-width="1"/><text x="573.82" y="91.2" font-size="11" fill="#141225">google_fonts</text>
<rect x="670.6800000000001" y="76" width="46.6" height="22" rx="5" fill="#faf9ff" stroke="#e2defa" stroke-width="1"/><text x="680.6800000000001" y="91.2" font-size="11" fill="#141225">intl</text>
<rect x="724.3000000000001" y="76" width="119.8" height="22" rx="5" fill="#faf9ff" stroke="#e2defa" stroke-width="1"/><text x="734.3000000000001" y="91.2" font-size="11" fill="#141225">cupertino_icons</text>
<text x="40" y="123" font-size="10.5" class="accent" letter-spacing="0.5">backend</text>
<rect x="136" y="110" width="66.6" height="22" rx="5" fill="#faf9ff" stroke="#e2defa" stroke-width="1"/><text x="146" y="125.2" font-size="11" fill="#141225">Node.js</text>
<rect x="209.585" y="110" width="66.6" height="22" rx="5" fill="#faf9ff" stroke="#e2defa" stroke-width="1"/><text x="219.585" y="125.2" font-size="11" fill="#141225">Express</text>
<rect x="283.17" y="110" width="40.0" height="22" rx="5" fill="#faf9ff" stroke="#e2defa" stroke-width="1"/><text x="293.17" y="125.2" font-size="11" fill="#141225">JWT</text>
<rect x="330.135" y="110" width="73.2" height="22" rx="5" fill="#faf9ff" stroke="#e2defa" stroke-width="1"/><text x="340.135" y="125.2" font-size="11" fill="#141225">bcryptjs</text>
<rect x="410.375" y="110" width="59.9" height="22" rx="5" fill="#faf9ff" stroke="#e2defa" stroke-width="1"/><text x="420.375" y="125.2" font-size="11" fill="#141225">multer</text>
<rect x="477.305" y="110" width="46.6" height="22" rx="5" fill="#faf9ff" stroke="#e2defa" stroke-width="1"/><text x="487.305" y="125.2" font-size="11" fill="#141225">cors</text>
<rect x="530.925" y="110" width="59.9" height="22" rx="5" fill="#faf9ff" stroke="#e2defa" stroke-width="1"/><text x="540.925" y="125.2" font-size="11" fill="#141225">morgan</text>
<rect x="597.855" y="110" width="59.9" height="22" rx="5" fill="#faf9ff" stroke="#e2defa" stroke-width="1"/><text x="607.855" y="125.2" font-size="11" fill="#141225">dotenv</text>
<rect x="664.7850000000001" y="110" width="46.6" height="22" rx="5" fill="#faf9ff" stroke="#e2defa" stroke-width="1"/><text x="674.7850000000001" y="125.2" font-size="11" fill="#141225">uuid</text>
<rect x="718.4050000000001" y="110" width="33.3" height="22" rx="5" fill="#faf9ff" stroke="#e2defa" stroke-width="1"/><text x="728.4050000000001" y="125.2" font-size="11" fill="#141225">pg</text>
<text x="40" y="157" font-size="10.5" class="accent" letter-spacing="0.5">web &amp; admin</text>
<rect x="136" y="144" width="53.3" height="22" rx="5" fill="#faf9ff" stroke="#e2defa" stroke-width="1"/><text x="146" y="159.2" font-size="11" fill="#141225">React</text>
<rect x="196.275" y="144" width="86.5" height="22" rx="5" fill="#faf9ff" stroke="#e2defa" stroke-width="1"/><text x="206.275" y="159.2" font-size="11" fill="#141225">TypeScript</text>
<rect x="289.825" y="144" width="46.6" height="22" rx="5" fill="#faf9ff" stroke="#e2defa" stroke-width="1"/><text x="299.825" y="159.2" font-size="11" fill="#141225">HTML</text>
<rect x="343.445" y="144" width="40.0" height="22" rx="5" fill="#faf9ff" stroke="#e2defa" stroke-width="1"/><text x="353.445" y="159.2" font-size="11" fill="#141225">CSS</text>
<rect x="390.40999999999997" y="144" width="86.5" height="22" rx="5" fill="#faf9ff" stroke="#e2defa" stroke-width="1"/><text x="400.40999999999997" y="159.2" font-size="11" fill="#141225">JavaScript</text>
<text x="40" y="191" font-size="10.5" class="accent" letter-spacing="0.5">data &amp; ml</text>
<rect x="136" y="178" width="86.5" height="22" rx="5" fill="#faf9ff" stroke="#e2defa" stroke-width="1"/><text x="146" y="193.2" font-size="11" fill="#141225">PostgreSQL</text>
<rect x="229.55" y="178" width="59.9" height="22" rx="5" fill="#faf9ff" stroke="#e2defa" stroke-width="1"/><text x="239.55" y="193.2" font-size="11" fill="#141225">Python</text>
<rect x="296.48" y="178" width="126.5" height="22" rx="5" fill="#faf9ff" stroke="#e2defa" stroke-width="1"/><text x="306.48" y="193.2" font-size="11" fill="#141225">Machine Learning</text>
<rect x="429.96000000000004" y="178" width="106.5" height="22" rx="5" fill="#faf9ff" stroke="#e2defa" stroke-width="1"/><text x="439.96000000000004" y="193.2" font-size="11" fill="#141225">Deep Learning</text>
<rect x="543.475" y="178" width="93.2" height="22" rx="5" fill="#faf9ff" stroke="#e2defa" stroke-width="1"/><text x="553.475" y="193.2" font-size="11" fill="#141225">Data Mining</text>
<text x="40" y="225" font-size="10.5" class="accent" letter-spacing="0.5">also</text>
<rect x="136" y="212" width="59.9" height="22" rx="5" fill="#faf9ff" stroke="#e2defa" stroke-width="1"/><text x="146" y="227.2" font-size="11" fill="#141225">Kotlin</text>
<rect x="202.93" y="212" width="26.7" height="22" rx="5" fill="#faf9ff" stroke="#e2defa" stroke-width="1"/><text x="212.93" y="227.2" font-size="11" fill="#141225">C</text>
<rect x="236.585" y="212" width="113.2" height="22" rx="5" fill="#faf9ff" stroke="#e2defa" stroke-width="1"/><text x="246.585" y="227.2" font-size="11" fill="#141225">Android Studio</text>
<rect x="356.755" y="212" width="40.0" height="22" rx="5" fill="#faf9ff" stroke="#e2defa" stroke-width="1"/><text x="366.755" y="227.2" font-size="11" fill="#141225">Git</text>
<rect x="403.72" y="212" width="59.9" height="22" rx="5" fill="#faf9ff" stroke="#e2defa" stroke-width="1"/><text x="413.72" y="227.2" font-size="11" fill="#141225">GitHub</text>
<rect x="470.65000000000003" y="212" width="40.0" height="22" rx="5" fill="#faf9ff" stroke="#e2defa" stroke-width="1"/><text x="480.65000000000003" y="227.2" font-size="11" fill="#141225">npm</text>
</svg>